<?xml version="1.0" standalone="no"?>
<!DOCTYPE svg PUBLIC "-//W3C//DTD SVG 20010904//EN"
 "http://www.w3.org/TR/2001/REC-SVG-20010904/DTD/svg10.dtd">
<svg version="1.0" xmlns="http://www.w3.org/2000/svg"
 width="500.000000pt" height="500.000000pt" viewBox="0 0 500.000000 500.000000"
 preserveAspectRatio="xMidYMid meet">

<g transform="translate(0.000000,500.000000) scale(0.100000,-0.100000)"
fill="#000000" stroke="none">
<path d="M2385 3611 c-34 -16 -78 -47 -101 -73 -39 -42 -89 -148 -81 -172 2
-6 12 16 22 49 15 48 31 72 79 121 92 91 197 118 294 74 36 -16 47 -29 73 -83
27 -58 58 -176 59 -219 0 -13 -8 -18 -26 -18 -39 0 -84 -50 -84 -94 0 -57 51
-91 95 -62 20 13 24 25 27 88 6 129 -45 318 -100 371 -60 57 -161 64 -257 18z
m345 -388 c0 -69 -9 -85 -44 -85 -37 0 -56 19 -56 56 0 46 37 85 83 86 14 0
17 -9 17 -57z"/>
<path d="M2847 3281 c50 -3 94 -8 97 -11 8 -8 27 -240 36 -441 l9 -184 -5 195
c-4 193 -20 430 -30 440 -3 3 -49 6 -102 6 l-97 2 92 -7z"/>
<path d="M2051 3272 c-9 -7 -16 -47 -22 -128 -11 -168 -33 -803 -28 -809 18
-17 931 -35 973 -19 9 3 16 11 16 17 0 7 -4 7 -12 -1 -21 -21 -945 -8 -966 13
-6 5 16 619 27 789 6 81 13 121 22 128 23 15 160 4 203 -17 34 -16 36 -19 19
-26 -29 -11 -64 -59 -61 -83 2 -11 15 -27 29 -35 22 -12 29 -12 55 0 27 13 29
19 29 67 -1 59 -2 58 120 66 33 2 15 2 -40 1 -84 -2 -106 1 -139 18 -44 23
-200 36 -225 19z m273 -78 c19 -50 -17 -103 -60 -87 -41 15 -44 44 -9 78 28
28 60 33 69 9z"/>
<path d="M1271 1952 c-56 -28 -76 -64 -76 -135 0 -48 5 -69 23 -94 26 -37 80
-58 127 -49 35 7 85 41 85 58 0 5 -14 -2 -31 -16 -85 -71 -184 11 -165 138 5
33 15 52 37 71 54 45 106 31 148 -40 11 -17 12 -15 6 15 -10 61 -86 87 -154
52z"/>
<path d="M1565 1963 c-50 -12 -95 -80 -95 -143 0 -81 61 -150 132 -150 69 0
128 69 128 150 0 100 -75 165 -165 143z m77 -24 c11 -6 26 -26 34 -44 28 -67
10 -171 -34 -194 -56 -30 -115 6 -127 77 -20 118 47 203 127 161z"/>
<path d="M2730 1963 c-32 -12 -50 -37 -50 -70 0 -36 8 -46 85 -96 73 -47 73
-107 1 -107 -32 0 -66 26 -79 60 -4 8 -5 -1 -4 -20 2 -31 6 -36 42 -48 102
-34 183 57 106 120 -15 12 -49 35 -75 50 -55 33 -64 70 -21 90 37 17 76 0 97
-42 l17 -35 1 32 c0 23 -7 37 -23 48 -27 17 -76 27 -97 18z"/>
<path d="M3430 1963 c-32 -12 -50 -37 -50 -68 0 -34 17 -53 87 -98 55 -35 67
-57 47 -85 -29 -41 -96 -23 -119 31 l-14 32 -1 -36 c0 -44 31 -64 97 -64 35 0
49 5 64 24 32 40 22 80 -31 118 -92 66 -103 78 -96 101 16 50 97 36 121 -21
l14 -32 1 31 c0 17 -8 38 -17 47 -20 17 -80 29 -103 20z"/>
<path d="M1780 1940 c18 -18 20 -35 22 -142 l2 -123 5 114 6 113 88 -111 c49
-61 90 -111 93 -111 2 0 3 64 2 143 -2 126 -3 130 -5 40 -2 -57 -7 -103 -11
-103 -4 1 -32 33 -62 72 -83 107 -105 128 -134 128 l-26 0 20 -20z"/>
<path d="M2057 1953 c-4 -3 -7 -18 -6 -32 0 -16 3 -20 6 -11 9 22 24 30 61 30
l32 0 0 -130 c0 -109 2 -130 15 -130 13 0 15 21 15 130 l0 130 50 0 c28 0 50
5 50 10 0 11 -212 14 -223 3z"/>
<path d="M2401 1938 c-5 -13 -32 -76 -59 -140 -28 -65 -46 -118 -40 -118 5 0
17 18 25 40 l16 40 57 0 c55 0 58 -1 81 -37 17 -28 32 -39 54 -41 l29 -4 -21
19 c-11 10 -42 71 -68 136 -27 65 -52 120 -57 123 -4 3 -12 -5 -17 -18z m45
-155 c-2 -2 -24 -3 -48 -1 l-45 3 25 55 25 55 24 -54 c13 -29 22 -56 19 -58z"/>
<path d="M2903 1949 c15 -9 17 -27 17 -139 0 -123 1 -130 20 -130 18 0 20 7
20 54 l0 53 47 7 c57 8 93 38 93 78 0 65 -39 88 -149 88 -50 -1 -62 -3 -48
-11z m137 -29 c26 -26 25 -51 -1 -84 -14 -17 -30 -26 -50 -26 l-29 0 0 65 0
65 30 0 c17 0 39 -9 50 -20z"/>
<path d="M3133 1949 c15 -9 17 -27 17 -139 l0 -130 85 0 c83 0 86 1 95 26 14
36 12 42 -6 16 -13 -19 -24 -22 -75 -22 l-59 0 0 60 0 59 58 4 57 3 -57 2 -58
2 0 55 0 56 57 -3 c50 -3 59 -6 70 -28 l13 -25 0 26 c0 42 -16 49 -119 49 -70
-1 -91 -3 -78 -11z"/>
<path d="M3603 1949 c15 -9 17 -27 17 -139 l0 -130 85 0 c73 0 86 3 95 19 16
31 12 48 -6 23 -13 -19 -24 -22 -75 -22 l-60 0 3 58 3 57 60 6 60 6 -62 1 -63
2 0 55 0 55 53 0 c55 0 70 -6 80 -30 4 -8 5 -1 4 15 l-2 30 -105 2 c-76 2
-100 0 -87 -8z"/>
</g>
</svg>
